<svg width="18" height="20" viewBox="0 0 18 20" fill="none" xmlns="http://www.w3.org/2000/svg">
<path fill-rule="evenodd" clip-rule="evenodd" d="M9.25167 1.91322C9.08733 1.86334 8.91273 1.86334 8.74831 1.91322C8.70106 1.92758 8.6179 1.9635 8.44105 2.10303C8.25511 2.24978 8.02741 2.45979 7.67263 2.78845L2.95698 7.15669C2.37887 7.69222 2.21498 7.85374 2.10104 8.03232C1.99144 8.20414 1.90979 8.3936 1.85938 8.59309C1.80698 8.80056 1.80005 9.03541 1.80005 9.84154V13.4347C1.80005 14.3215 1.80054 14.9397 1.83221 15.4235C1.86334 15.899 1.92156 16.1759 2.00558 16.3872C2.27961 17.0766 2.80522 17.6245 3.46679 17.91C3.66964 17.9976 3.93532 18.0583 4.39153 18.0907C4.85584 18.1237 5.44901 18.1242 6.30001 18.1242H11.7C12.551 18.1242 13.1441 18.1237 13.6084 18.0907C14.0647 18.0583 14.3303 17.9976 14.5332 17.91C15.1948 17.6245 15.7204 17.0766 15.9944 16.3872C16.0784 16.1759 16.1366 15.899 16.1678 15.4235C16.1994 14.9397 16.2 14.3215 16.2 13.4347V9.84154C16.2 9.03541 16.193 8.80056 16.1406 8.59309C16.0902 8.3936 16.0085 8.20414 15.8989 8.03232C15.785 7.85374 15.6211 7.69222 15.043 7.15669L10.3273 2.78845C9.97257 2.45979 9.74487 2.24978 9.55893 2.10303C9.38208 1.9635 9.29892 1.92758 9.25167 1.91322ZM8.24503 0.112225C8.73814 -0.0374084 9.26184 -0.0374084 9.75495 0.112225C10.097 0.216061 10.3807 0.398652 10.6454 0.607505C10.8947 0.804203 11.1755 1.06428 11.4988 1.36376L16.2389 5.7547C16.2644 5.77833 16.2895 5.80165 16.3145 5.82466C16.784 6.25912 17.1386 6.58733 17.398 6.99384C17.6171 7.33748 17.7805 7.71644 17.8813 8.11551C18.0005 8.58756 18.0003 9.08183 18 9.73612C18 9.77082 18 9.8059 18 9.84154V13.468C18 14.3138 18 14.996 17.9636 15.5512C17.9262 16.1221 17.8474 16.627 17.6574 17.1051C17.2007 18.2542 16.3246 19.167 15.222 19.643C14.7633 19.841 14.2789 19.9232 13.7309 19.9621C13.1981 20 12.5435 20 11.732 20H6.26804C5.45647 20 4.80181 20 4.26901 19.9621C3.72114 19.9232 3.2367 19.841 2.77797 19.643C1.67535 19.167 0.799327 18.2541 0.342608 17.1051C0.152592 16.627 0.0737888 16.1221 0.0364031 15.5512C5.23563e-05 14.996 6.14632e-05 14.3138 6.14632e-05 13.468V9.84154C6.14632e-05 9.8059 4.34266e-05 9.77082 3.44267e-05 9.73612C-0.000298571 9.08183 -0.000541641 8.58756 0.118725 8.11551C0.219552 7.71644 0.382855 7.33748 0.602058 6.99384C0.861363 6.58733 1.21604 6.25912 1.68554 5.82467C1.71042 5.80165 1.73561 5.77833 1.76113 5.7547L6.50124 1.36377C6.82452 1.06428 7.10525 0.804203 7.35458 0.607505C7.61926 0.398652 7.90294 0.216061 8.24503 0.112225Z" fill="#1F1F1F"/>
</svg>
