<svg width="104" height="95" viewBox="0 0 104 95" fill="none" xmlns="http://www.w3.org/2000/svg">
<path d="M9.626 92L6.378 82.2H8.268L11.166 91.062H10.228L13.238 82.2H14.918L17.844 91.062H16.934L19.902 82.2H21.638L18.39 92H16.458L13.784 84.006H14.288L11.572 92H9.626ZM25.9061 92.098C25.0755 92.098 24.3475 91.9347 23.7221 91.608C23.1061 91.272 22.6255 90.8147 22.2801 90.236C21.9441 89.6573 21.7761 88.9993 21.7761 88.262C21.7761 87.5153 21.9395 86.8573 22.2661 86.288C22.6021 85.7093 23.0595 85.2567 23.6381 84.93C24.2261 84.6033 24.8935 84.44 25.6401 84.44C26.3681 84.44 27.0168 84.5987 27.5861 84.916C28.1555 85.2333 28.6035 85.6813 28.9301 86.26C29.2568 86.8387 29.4201 87.52 29.4201 88.304C29.4201 88.3787 29.4155 88.4627 29.4061 88.556C29.4061 88.6493 29.4015 88.738 29.3921 88.822H23.1621V87.66H28.4681L27.7821 88.024C27.7915 87.5947 27.7028 87.2167 27.5161 86.89C27.3295 86.5633 27.0728 86.3067 26.7461 86.12C26.4288 85.9333 26.0601 85.84 25.6401 85.84C25.2108 85.84 24.8328 85.9333 24.5061 86.12C24.1888 86.3067 23.9368 86.568 23.7501 86.904C23.5728 87.2307 23.4841 87.618 23.4841 88.066V88.346C23.4841 88.794 23.5868 89.1907 23.7921 89.536C23.9975 89.8813 24.2868 90.1473 24.6601 90.334C25.0335 90.5207 25.4628 90.614 25.9481 90.614C26.3681 90.614 26.7461 90.5487 27.0821 90.418C27.4181 90.2873 27.7168 90.082 27.9781 89.802L28.9161 90.88C28.5801 91.272 28.1555 91.5753 27.6421 91.79C27.1381 91.9953 26.5595 92.098 25.9061 92.098ZM35.502 92V90.488L35.404 90.166V87.52C35.404 87.0067 35.25 86.61 34.942 86.33C34.634 86.0407 34.1674 85.896 33.542 85.896C33.122 85.896 32.7067 85.9613 32.296 86.092C31.8947 86.2227 31.554 86.4047 31.274 86.638L30.588 85.364C30.9894 85.056 31.4654 84.8273 32.016 84.678C32.576 84.5193 33.1547 84.44 33.752 84.44C34.8347 84.44 35.67 84.7013 36.258 85.224C36.8554 85.7373 37.154 86.5353 37.154 87.618V92H35.502ZM33.15 92.098C32.59 92.098 32.1 92.0047 31.68 91.818C31.26 91.622 30.9334 91.356 30.7 91.02C30.476 90.6747 30.364 90.2873 30.364 89.858C30.364 89.438 30.462 89.06 30.658 88.724C30.8634 88.388 31.1947 88.122 31.652 87.926C32.1094 87.73 32.716 87.632 33.472 87.632H35.642V88.794H33.598C33.0007 88.794 32.5994 88.892 32.394 89.088C32.1887 89.2747 32.086 89.508 32.086 89.788C32.086 90.1053 32.212 90.3573 32.464 90.544C32.716 90.7307 33.066 90.824 33.514 90.824C33.9434 90.824 34.326 90.726 34.662 90.53C35.0074 90.334 35.2547 90.0447 35.404 89.662L35.698 90.712C35.53 91.1507 35.2267 91.4913 34.788 91.734C34.3587 91.9767 33.8127 92.098 33.15 92.098ZM39.4 92V81.612H41.15V92H39.4ZM46.63 92.098C45.8086 92.098 45.174 91.888 44.726 91.468C44.278 91.0387 44.054 90.4087 44.054 89.578V82.872H45.804V89.536C45.804 89.8907 45.8926 90.166 46.07 90.362C46.2566 90.558 46.5133 90.656 46.84 90.656C47.232 90.656 47.5586 90.5533 47.82 90.348L48.31 91.594C48.1046 91.762 47.8526 91.888 47.554 91.972C47.2553 92.056 46.9473 92.098 46.63 92.098ZM42.822 85.98V84.58H47.806V85.98H42.822ZM53.9916 84.44C54.5889 84.44 55.1209 84.5567 55.5876 84.79C56.0636 85.0233 56.4369 85.3827 56.7076 85.868C56.9782 86.344 57.1136 86.96 57.1136 87.716V92H55.3636V87.94C55.3636 87.2773 55.2049 86.7827 54.8876 86.456C54.5796 86.1293 54.1456 85.966 53.5856 85.966C53.1749 85.966 52.8109 86.05 52.4936 86.218C52.1762 86.386 51.9289 86.638 51.7516 86.974C51.5836 87.3007 51.4996 87.716 51.4996 88.22V92H49.7496V81.612H51.4996V86.54L51.1216 85.924C51.3829 85.448 51.7609 85.084 52.2556 84.832C52.7596 84.5707 53.3382 84.44 53.9916 84.44ZM61.8115 92L58.5635 82.2H60.4535L63.3515 91.062H62.4135L65.4235 82.2H67.1035L70.0295 91.062H69.1195L72.0875 82.2H73.8235L70.5755 92H68.6435L65.9695 84.006H66.4735L63.7575 92H61.8115ZM79.1837 92V90.488L79.0857 90.166V87.52C79.0857 87.0067 78.9317 86.61 78.6237 86.33C78.3157 86.0407 77.849 85.896 77.2237 85.896C76.8037 85.896 76.3884 85.9613 75.9777 86.092C75.5764 86.2227 75.2357 86.4047 74.9557 86.638L74.2697 85.364C74.671 85.056 75.147 84.8273 75.6977 84.678C76.2577 84.5193 76.8364 84.44 77.4337 84.44C78.5164 84.44 79.3517 84.7013 79.9397 85.224C80.537 85.7373 80.8357 86.5353 80.8357 87.618V92H79.1837ZM76.8317 92.098C76.2717 92.098 75.7817 92.0047 75.3617 91.818C74.9417 91.622 74.615 91.356 74.3817 91.02C74.1577 90.6747 74.0457 90.2873 74.0457 89.858C74.0457 89.438 74.1437 89.06 74.3397 88.724C74.545 88.388 74.8764 88.122 75.3337 87.926C75.791 87.73 76.3977 87.632 77.1537 87.632H79.3237V88.794H77.2797C76.6824 88.794 76.281 88.892 76.0757 89.088C75.8704 89.2747 75.7677 89.508 75.7677 89.788C75.7677 90.1053 75.8937 90.3573 76.1457 90.544C76.3977 90.7307 76.7477 90.824 77.1957 90.824C77.625 90.824 78.0077 90.726 78.3437 90.53C78.689 90.334 78.9364 90.0447 79.0857 89.662L79.3797 90.712C79.2117 91.1507 78.9084 91.4913 78.4697 91.734C78.0404 91.9767 77.4944 92.098 76.8317 92.098ZM84.9329 92L81.7269 84.524H83.5469L86.3049 91.118H85.4089L88.2649 84.524H89.9449L86.7389 92H84.9329ZM94.3475 92.098C93.5169 92.098 92.7889 91.9347 92.1635 91.608C91.5475 91.272 91.0669 90.8147 90.7215 90.236C90.3855 89.6573 90.2175 88.9993 90.2175 88.262C90.2175 87.5153 90.3809 86.8573 90.7075 86.288C91.0435 85.7093 91.5009 85.2567 92.0795 84.93C92.6675 84.6033 93.3349 84.44 94.0815 84.44C94.8095 84.44 95.4582 84.5987 96.0275 84.916C96.5969 85.2333 97.0449 85.6813 97.3715 86.26C97.6982 86.8387 97.8615 87.52 97.8615 88.304C97.8615 88.3787 97.8569 88.4627 97.8475 88.556C97.8475 88.6493 97.8429 88.738 97.8335 88.822H91.6035V87.66H96.9095L96.2235 88.024C96.2329 87.5947 96.1442 87.2167 95.9575 86.89C95.7709 86.5633 95.5142 86.3067 95.1875 86.12C94.8702 85.9333 94.5015 85.84 94.0815 85.84C93.6522 85.84 93.2742 85.9333 92.9475 86.12C92.6302 86.3067 92.3782 86.568 92.1915 86.904C92.0142 87.2307 91.9255 87.618 91.9255 88.066V88.346C91.9255 88.794 92.0282 89.1907 92.2335 89.536C92.4389 89.8813 92.7282 90.1473 93.1015 90.334C93.4749 90.5207 93.9042 90.614 94.3895 90.614C94.8095 90.614 95.1875 90.5487 95.5235 90.418C95.8595 90.2873 96.1582 90.082 96.4195 89.802L97.3575 90.88C97.0215 91.272 96.5969 91.5753 96.0835 91.79C95.5795 91.9953 95.0009 92.098 94.3475 92.098Z" fill="#A5A5A5"/>
<path d="M15.552 62L1.024 17.2H14.08L26.304 55.984H19.712L32.576 17.2H44.224L56.384 55.984H50.048L62.656 17.2H74.752L60.224 62H46.656L36.288 29.04H39.936L29.12 62H15.552Z" fill="#4278FF"/>
<path d="M78.694 41.072V38.192L90.534 27.824C92.07 26.416 93.094 25.3067 93.606 24.496C94.118 23.6427 94.374 22.832 94.374 22.064C94.374 20.9547 93.862 20.016 92.838 19.248C91.814 18.4373 90.1927 18.032 87.974 18.032C86.438 18.032 85.03 18.288 83.75 18.8C82.5127 19.2693 81.4887 19.9733 80.678 20.912L77.542 18.48C78.6513 17.1147 80.102 16.0693 81.894 15.344C83.7287 14.576 85.862 14.192 88.294 14.192C91.75 14.192 94.374 14.9173 96.166 16.368C97.958 17.8187 98.854 19.6107 98.854 21.744C98.854 23.024 98.534 24.2613 97.894 25.456C97.2967 26.6507 95.974 28.144 93.926 29.936L83.558 39.024L82.342 37.36H100.07V41.072H78.694Z" fill="#1F1F1F"/>
</svg>
