<svg width="22" height="22" viewBox="0 0 22 22" fill="none" xmlns="http://www.w3.org/2000/svg">
<path fill-rule="evenodd" clip-rule="evenodd" d="M16.0137 0.397294C14.2849 -0.108896 12.7611 -0.212924 11.6719 0.571263C10.5642 1.36879 10.3175 2.78272 10.3175 4.16409V7.1363C10.3175 8.50259 10.5925 9.68583 11.3481 10.5248C12.125 11.3875 13.2254 11.6864 14.4123 11.6864H17.8372C19.2182 11.6864 20.6318 11.4394 21.4291 10.3313C22.2127 9.24198 22.1088 7.718 21.6029 5.9886L21.6025 5.98734C20.8361 3.38053 18.6211 1.16449 16.015 0.397666L16.0137 0.397294ZM12.3175 4.16409C12.3175 2.86221 12.5865 2.37723 12.8405 2.19434C13.113 1.99814 13.7967 1.8322 15.4511 2.31652C17.4041 2.89143 19.1087 4.59652 19.6835 6.5507C20.1677 8.20591 20.0019 8.89032 19.8056 9.16327C19.6228 9.41734 19.1383 9.68639 17.8372 9.68639H14.4123C13.536 9.68639 13.0889 9.46925 12.8343 9.18644C12.5582 8.87989 12.3175 8.28808 12.3175 7.1363V4.16409ZM8.69068 3.42053C9.23182 3.31014 9.58102 2.78198 9.47063 2.24084C9.36025 1.6997 8.83208 1.3505 8.29094 1.46089C3.02705 2.53465 -0.785627 7.60557 0.137907 13.3429L0.138305 13.3454C0.847033 17.6795 4.32496 21.1609 8.66058 21.8596C14.4208 22.7953 19.4893 18.9555 20.5506 13.6698C20.6593 13.1283 20.3085 12.6012 19.767 12.4925C19.2255 12.3838 18.6984 12.7346 18.5897 13.2761C17.7322 17.5469 13.6402 20.6423 8.98126 19.8855L8.97989 19.8852C5.49704 19.3244 2.68312 16.5114 2.11229 13.0238C1.36538 8.37962 4.44361 4.28688 8.69068 3.42053Z" fill="#1F1F1F"/>
</svg>
